<?xml version="1.0" encoding="UTF-8" standalone="no"?>
<!DOCTYPE svg PUBLIC "-//W3C//DTD SVG 1.1//EN"
 "http://www.w3.org/Graphics/SVG/1.1/DTD/svg11.dtd">
<!-- Generated by graphviz version 2.43.0 (0)
 -->
<!-- Title: fixed_xor.h Pages: 1 -->
<svg width="326pt" height="82pt"
 viewBox="0.00 0.00 325.50 82.00" xmlns="http://www.w3.org/2000/svg" xmlns:xlink="http://www.w3.org/1999/xlink">
<g id="graph0" class="graph" transform="scale(1 1) rotate(0) translate(4 78)">
<title>fixed_xor.h</title>
<!-- Node1 -->
<g id="Node000001" class="node">
<title>Node1</title>
<g id="a_Node000001"><a xlink:title="Public interface for XORing two equally sized buffers.">
<polygon fill="#999999" stroke="#666666" points="169,-74 101,-74 101,-55 169,-55 169,-74"/>
<text text-anchor="middle" x="135" y="-62" font-family="Helvetica,sans-Serif" font-size="10.00">fixed_xor.h</text>
</a>
</g>
</g>
<!-- Node2 -->
<g id="Node000002" class="node">
<title>Node2</title>
<g id="a_Node000002"><a xlink:href="fixed__xor_8c.html" target="_top" xlink:title="Implementation of fixed&#45;length buffer XOR helpers.">
<polygon fill="white" stroke="#666666" points="68,-19 0,-19 0,0 68,0 68,-19"/>
<text text-anchor="middle" x="34" y="-7" font-family="Helvetica,sans-Serif" font-size="10.00">fixed_xor.c</text>
</a>
</g>
</g>
<!-- Node1&#45;&gt;Node2 -->
<g id="edge1_Node000001_Node000002" class="edge">
<title>Node1&#45;&gt;Node2</title>
<g id="a_edge1_Node000001_Node000002"><a xlink:title=" ">
<path fill="none" stroke="#63b8ff" d="M109.72,-50.23C91.2,-40.51 66.58,-27.6 50.52,-19.17"/>
<polygon fill="#63b8ff" stroke="#63b8ff" points="108.29,-53.44 118.77,-54.98 111.54,-47.24 108.29,-53.44"/>
</a>
</g>
</g>
<!-- Node3 -->
<g id="Node000003" class="node">
<title>Node3</title>
<g id="a_Node000003"><a xlink:href="fixed__xor__main_8c.html" target="_top" xlink:title="Command&#45;line wrapper for XORing two equal&#45;length buffers.">
<polygon fill="white" stroke="#666666" points="184,-19 86,-19 86,0 184,0 184,-19"/>
<text text-anchor="middle" x="135" y="-7" font-family="Helvetica,sans-Serif" font-size="10.00">fixed_xor_main.c</text>
</a>
</g>
</g>
<!-- Node1&#45;&gt;Node3 -->
<g id="edge2_Node000001_Node000003" class="edge">
<title>Node1&#45;&gt;Node3</title>
<g id="a_edge2_Node000001_Node000003"><a xlink:title=" ">
<path fill="none" stroke="#63b8ff" d="M135,-44.66C135,-35.93 135,-25.99 135,-19.09"/>
<polygon fill="#63b8ff" stroke="#63b8ff" points="131.5,-44.75 135,-54.75 138.5,-44.75 131.5,-44.75"/>
</a>
</g>
</g>
<!-- Node4 -->
<g id="Node000004" class="node">
<title>Node4</title>
<g id="a_Node000004"><a xlink:href="set__1__challenge__2_8c.html" target="_top" xlink:title="Cryptopals Set 1 Challenge 2: fixed XOR test harness.">
<polygon fill="white" stroke="#666666" points="317.5,-19 202.5,-19 202.5,0 317.5,0 317.5,-19"/>
<text text-anchor="middle" x="260" y="-7" font-family="Helvetica,sans-Serif" font-size="10.00">set_1_challenge_2.c</text>
</a>
</g>
</g>
<!-- Node1&#45;&gt;Node4 -->
<g id="edge3_Node000001_Node000004" class="edge">
<title>Node1&#45;&gt;Node4</title>
<g id="a_edge3_Node000001_Node000004"><a xlink:title=" ">
<path fill="none" stroke="#63b8ff" d="M164.41,-51.03C187.53,-41.23 219.13,-27.83 239.55,-19.17"/>
<polygon fill="#63b8ff" stroke="#63b8ff" points="162.92,-47.86 155.08,-54.98 165.66,-54.3 162.92,-47.86"/>
</a>
</g>
</g>
</g>
</svg>
