<?xml version="1.0" encoding="UTF-8" standalone="no"?>
<!DOCTYPE svg PUBLIC "-//W3C//DTD SVG 1.1//EN"
 "http://www.w3.org/Graphics/SVG/1.1/DTD/svg11.dtd">
<!-- Generated by graphviz version 2.43.0 (0)
 -->
<!-- Title: fixed_xor.h Pages: 1 -->
<svg width="192pt" height="82pt"
 viewBox="0.00 0.00 192.00 82.00" xmlns="http://www.w3.org/2000/svg" xmlns:xlink="http://www.w3.org/1999/xlink">
<g id="graph0" class="graph" transform="scale(1 1) rotate(0) translate(4 78)">
<title>fixed_xor.h</title>
<!-- Node1 -->
<g id="Node000001" class="node">
<title>Node1</title>
<g id="a_Node000001"><a xlink:title="Public interface for XORing two equally sized buffers.">
<polygon fill="#999999" stroke="#666666" points="118,-74 50,-74 50,-55 118,-55 118,-74"/>
<text text-anchor="middle" x="84" y="-62" font-family="Helvetica,sans-Serif" font-size="10.00">fixed_xor.h</text>
</a>
</g>
</g>
<!-- Node2 -->
<g id="Node000002" class="node">
<title>Node2</title>
<g id="a_Node000002"><a xlink:href="fixed__xor_8c.html" target="_top" xlink:title="Implementation of fixed&#45;length buffer XOR helpers.">
<polygon fill="white" stroke="#666666" points="68,-19 0,-19 0,0 68,0 68,-19"/>
<text text-anchor="middle" x="34" y="-7" font-family="Helvetica,sans-Serif" font-size="10.00">fixed_xor.c</text>
</a>
</g>
</g>
<!-- Node1&#45;&gt;Node2 -->
<g id="edge1_Node000001_Node000002" class="edge">
<title>Node1&#45;&gt;Node2</title>
<g id="a_edge1_Node000001_Node000002"><a xlink:title=" ">
<path fill="none" stroke="#63b8ff" d="M68.66,-47.24C59.9,-37.95 49.26,-26.68 42.1,-19.09"/>
<polygon fill="#63b8ff" stroke="#63b8ff" points="66.34,-49.88 75.74,-54.75 71.43,-45.07 66.34,-49.88"/>
</a>
</g>
</g>
<!-- Node3 -->
<g id="Node000003" class="node">
<title>Node3</title>
<g id="a_Node000003"><a xlink:href="fixed__xor__main_8c.html" target="_top" xlink:title="Command&#45;line wrapper for XORing two equal&#45;length buffers.">
<polygon fill="white" stroke="#666666" points="184,-19 86,-19 86,0 184,0 184,-19"/>
<text text-anchor="middle" x="135" y="-7" font-family="Helvetica,sans-Serif" font-size="10.00">fixed_xor_main.c</text>
</a>
</g>
</g>
<!-- Node1&#45;&gt;Node3 -->
<g id="edge2_Node000001_Node000003" class="edge">
<title>Node1&#45;&gt;Node3</title>
<g id="a_edge2_Node000001_Node000003"><a xlink:title=" ">
<path fill="none" stroke="#63b8ff" d="M99.38,-47.52C108.37,-38.18 119.36,-26.75 126.74,-19.09"/>
<polygon fill="#63b8ff" stroke="#63b8ff" points="96.83,-45.12 92.42,-54.75 101.88,-49.97 96.83,-45.12"/>
</a>
</g>
</g>
</g>
</svg>
