<?xml version="1.0" encoding="UTF-8" standalone="no"?>
<!DOCTYPE svg PUBLIC "-//W3C//DTD SVG 1.1//EN"
 "http://www.w3.org/Graphics/SVG/1.1/DTD/svg11.dtd">
<!-- Generated by graphviz version 2.43.0 (0)
 -->
<!-- Title: fixed_xor_stream Pages: 1 -->
<svg width="243pt" height="64pt"
 viewBox="0.00 0.00 243.00 64.00" xmlns="http://www.w3.org/2000/svg" xmlns:xlink="http://www.w3.org/1999/xlink">
<g id="graph0" class="graph" transform="scale(1 1) rotate(0) translate(4 60)">
<title>fixed_xor_stream</title>
<!-- Node1 -->
<g id="Node000001" class="node">
<title>Node1</title>
<g id="a_Node000001"><a xlink:title="Implementation of fixed_xor_stream().">
<polygon fill="#999999" stroke="#666666" points="100,-37 0,-37 0,-18 100,-18 100,-37"/>
<text text-anchor="middle" x="50" y="-25" font-family="Helvetica,sans-Serif" font-size="10.00">fixed_xor_stream</text>
</a>
</g>
</g>
<!-- Node2 -->
<g id="Node000002" class="node">
<title>Node2</title>
<g id="a_Node000002"><a xlink:href="fixed__xor_8c.html#ab23437e524ba132f67eaab28f6f87175" target="_top" xlink:title="Implementation of fixed_xor_buffers().">
<polygon fill="white" stroke="#666666" points="235,-56 136,-56 136,-37 235,-37 235,-56"/>
<text text-anchor="middle" x="185.5" y="-44" font-family="Helvetica,sans-Serif" font-size="10.00">fixed_xor_buffers</text>
</a>
</g>
</g>
<!-- Node1&#45;&gt;Node2 -->
<g id="edge1_Node000001_Node000002" class="edge">
<title>Node1&#45;&gt;Node2</title>
<g id="a_edge1_Node000001_Node000002"><a xlink:title=" ">
<path fill="none" stroke="#63b8ff" d="M100.33,-34.52C108.66,-35.71 117.38,-36.95 125.91,-38.16"/>
<polygon fill="#63b8ff" stroke="#63b8ff" points="125.42,-41.63 135.82,-39.57 126.41,-34.7 125.42,-41.63"/>
</a>
</g>
</g>
<!-- Node3 -->
<g id="Node000003" class="node">
<title>Node3</title>
<g id="a_Node000003"><a xlink:href="fixed__xor_8c.html#a9b4d1e52c05be8cbc19c07289624b536" target="_top" xlink:title="Ensure that buffer has capacity for required bytes.">
<polygon fill="white" stroke="#666666" points="230,-19 141,-19 141,0 230,0 230,-19"/>
<text text-anchor="middle" x="185.5" y="-7" font-family="Helvetica,sans-Serif" font-size="10.00">fixed_xor_grow</text>
</a>
</g>
</g>
<!-- Node1&#45;&gt;Node3 -->
<g id="edge2_Node000001_Node000003" class="edge">
<title>Node1&#45;&gt;Node3</title>
<g id="a_edge2_Node000001_Node000003"><a xlink:title=" ">
<path fill="none" stroke="#63b8ff" d="M100.33,-20.85C110.14,-19.53 120.5,-18.13 130.46,-16.79"/>
<polygon fill="#63b8ff" stroke="#63b8ff" points="131.21,-20.22 140.66,-15.41 130.28,-13.28 131.21,-20.22"/>
</a>
</g>
</g>
</g>
</svg>
