<?xml version="1.0" encoding="UTF-8" standalone="no"?>
<!DOCTYPE svg PUBLIC "-//W3C//DTD SVG 1.1//EN"
 "http://www.w3.org/Graphics/SVG/1.1/DTD/svg11.dtd">
<!-- Generated by graphviz version 2.43.0 (0)
 -->
<!-- Title: main Pages: 1 -->
<svg width="348pt" height="82pt"
 viewBox="0.00 0.00 348.00 82.00" xmlns="http://www.w3.org/2000/svg" xmlns:xlink="http://www.w3.org/1999/xlink">
<g id="graph0" class="graph" transform="scale(1 1) rotate(0) translate(4 78)">
<title>main</title>
<!-- Node1 -->
<g id="Node000001" class="node">
<title>Node1</title>
<g id="a_Node000001"><a xlink:title="Entry point that streams stdin through fixed_xor_stream().">
<polygon fill="#999999" stroke="#666666" points="41,-55 0,-55 0,-36 41,-36 41,-55"/>
<text text-anchor="middle" x="20.5" y="-43" font-family="Helvetica,sans-Serif" font-size="10.00">main</text>
</a>
</g>
</g>
<!-- Node2 -->
<g id="Node000002" class="node">
<title>Node2</title>
<g id="a_Node000002"><a xlink:href="fixed__xor_8c.html#afd02583938bcd7d4f11baa18e23279d4" target="_top" xlink:title="Convert a fixed_xor_status value into a human&#45;readable string.">
<polygon fill="white" stroke="#666666" points="205,-74 77,-74 77,-55 205,-55 205,-74"/>
<text text-anchor="middle" x="141" y="-62" font-family="Helvetica,sans-Serif" font-size="10.00">fixed_xor_status_string</text>
</a>
</g>
</g>
<!-- Node1&#45;&gt;Node2 -->
<g id="edge1_Node000001_Node000002" class="edge">
<title>Node1&#45;&gt;Node2</title>
<g id="a_edge1_Node000001_Node000002"><a xlink:title=" ">
<path fill="none" stroke="#63b8ff" d="M41.07,-48.64C49.47,-49.99 59.85,-51.65 70.69,-53.39"/>
<polygon fill="#63b8ff" stroke="#63b8ff" points="70.3,-56.87 80.73,-55 71.41,-49.96 70.3,-56.87"/>
</a>
</g>
</g>
<!-- Node3 -->
<g id="Node000003" class="node">
<title>Node3</title>
<g id="a_Node000003"><a xlink:href="fixed__xor_8c.html#a1719a7f89364714ae3b944a4772f8eb5" target="_top" xlink:title="XOR two half&#45;length buffers read sequentially from a stream.">
<polygon fill="white" stroke="#666666" points="191,-37 91,-37 91,-18 191,-18 191,-37"/>
<text text-anchor="middle" x="141" y="-25" font-family="Helvetica,sans-Serif" font-size="10.00">fixed_xor_stream</text>
</a>
</g>
</g>
<!-- Node1&#45;&gt;Node3 -->
<g id="edge2_Node000001_Node000003" class="edge">
<title>Node1&#45;&gt;Node3</title>
<g id="a_edge2_Node000001_Node000003"><a xlink:title=" ">
<path fill="none" stroke="#63b8ff" d="M41.07,-42.53C52.12,-40.85 66.59,-38.65 81.04,-36.46"/>
<polygon fill="#63b8ff" stroke="#63b8ff" points="81.63,-39.91 90.99,-34.94 80.58,-32.99 81.63,-39.91"/>
</a>
</g>
</g>
<!-- Node4 -->
<g id="Node000004" class="node">
<title>Node4</title>
<g id="a_Node000004"><a xlink:href="fixed__xor_8c.html#ab23437e524ba132f67eaab28f6f87175" target="_top" xlink:title="Implementation of fixed_xor_buffers().">
<polygon fill="white" stroke="#666666" points="340,-56 241,-56 241,-37 340,-37 340,-56"/>
<text text-anchor="middle" x="290.5" y="-44" font-family="Helvetica,sans-Serif" font-size="10.00">fixed_xor_buffers</text>
</a>
</g>
</g>
<!-- Node3&#45;&gt;Node4 -->
<g id="edge3_Node000003_Node000004" class="edge">
<title>Node3&#45;&gt;Node4</title>
<g id="a_edge3_Node000003_Node000004"><a xlink:title=" ">
<path fill="none" stroke="#63b8ff" d="M191.12,-33.83C203.87,-35.47 217.74,-37.26 230.93,-38.95"/>
<polygon fill="#63b8ff" stroke="#63b8ff" points="230.48,-42.43 240.85,-40.23 231.38,-35.48 230.48,-42.43"/>
</a>
</g>
</g>
<!-- Node5 -->
<g id="Node000005" class="node">
<title>Node5</title>
<g id="a_Node000005"><a xlink:href="fixed__xor_8c.html#a9b4d1e52c05be8cbc19c07289624b536" target="_top" xlink:title="Ensure that buffer has capacity for required bytes.">
<polygon fill="white" stroke="#666666" points="335,-19 246,-19 246,0 335,0 335,-19"/>
<text text-anchor="middle" x="290.5" y="-7" font-family="Helvetica,sans-Serif" font-size="10.00">fixed_xor_grow</text>
</a>
</g>
</g>
<!-- Node3&#45;&gt;Node5 -->
<g id="edge4_Node000003_Node000005" class="edge">
<title>Node3&#45;&gt;Node5</title>
<g id="a_edge4_Node000003_Node000005"><a xlink:title=" ">
<path fill="none" stroke="#63b8ff" d="M191.12,-21.51C205.28,-19.78 220.81,-17.88 235.26,-16.12"/>
<polygon fill="#63b8ff" stroke="#63b8ff" points="236.06,-19.55 245.56,-14.86 235.21,-12.6 236.06,-19.55"/>
</a>
</g>
</g>
</g>
</svg>
