<?xml version="1.0" encoding="UTF-8" standalone="no"?>
<!DOCTYPE svg PUBLIC "-//W3C//DTD SVG 1.1//EN"
 "http://www.w3.org/Graphics/SVG/1.1/DTD/svg11.dtd">
<!-- Generated by graphviz version 2.43.0 (0)
 -->
<!-- Title: main Pages: 1 -->
<svg width="503pt" height="64pt"
 viewBox="0.00 0.00 503.00 64.00" xmlns="http://www.w3.org/2000/svg" xmlns:xlink="http://www.w3.org/1999/xlink">
<g id="graph0" class="graph" transform="scale(1 1) rotate(0) translate(4 60)">
<title>main</title>
<!-- Node1 -->
<g id="Node000001" class="node">
<title>Node1</title>
<g id="a_Node000001"><a xlink:title="Entry point that wires stdin/stdout through hex2b64_stream().">
<polygon fill="#999999" stroke="#666666" points="41,-37 0,-37 0,-18 41,-18 41,-37"/>
<text text-anchor="middle" x="20.5" y="-25" font-family="Helvetica,sans-Serif" font-size="10.00">main</text>
</a>
</g>
</g>
<!-- Node2 -->
<g id="Node000002" class="node">
<title>Node2</title>
<g id="a_Node000002"><a xlink:href="hex2b64_8c.html#ac4d5fb00f18155944f6038d75dc86884" target="_top" xlink:title="Convert hexadecimal text read from a stream into Base64.">
<polygon fill="white" stroke="#666666" points="175,-37 77,-37 77,-18 175,-18 175,-37"/>
<text text-anchor="middle" x="126" y="-25" font-family="Helvetica,sans-Serif" font-size="10.00">hex2b64_stream</text>
</a>
</g>
</g>
<!-- Node1&#45;&gt;Node2 -->
<g id="edge1_Node000001_Node000002" class="edge">
<title>Node1&#45;&gt;Node2</title>
<g id="a_edge1_Node000001_Node000002"><a xlink:title=" ">
<path fill="none" stroke="#63b8ff" d="M41.46,-27.5C48.8,-27.5 57.53,-27.5 66.54,-27.5"/>
<polygon fill="#63b8ff" stroke="#63b8ff" points="66.77,-31 76.77,-27.5 66.77,-24 66.77,-31"/>
</a>
</g>
</g>
<!-- Node3 -->
<g id="Node000003" class="node">
<title>Node3</title>
<g id="a_Node000003"><a xlink:href="hex2b64_8c.html#a9538b35625a219c2ae5d78b640ba7da4" target="_top" xlink:title="Write a Base64 block derived from up to three input bytes.">
<polygon fill="white" stroke="#666666" points="335,-56 211,-56 211,-37 335,-37 335,-56"/>
<text text-anchor="middle" x="273" y="-44" font-family="Helvetica,sans-Serif" font-size="10.00">encode_base64_block</text>
</a>
</g>
</g>
<!-- Node2&#45;&gt;Node3 -->
<g id="edge2_Node000002_Node000003" class="edge">
<title>Node2&#45;&gt;Node3</title>
<g id="a_edge2_Node000002_Node000003"><a xlink:title=" ">
<path fill="none" stroke="#63b8ff" d="M175.28,-33.83C183.45,-34.9 192.09,-36.03 200.7,-37.16"/>
<polygon fill="#63b8ff" stroke="#63b8ff" points="200.4,-40.65 210.77,-38.48 201.31,-33.71 200.4,-40.65"/>
</a>
</g>
</g>
<!-- Node5 -->
<g id="Node000005" class="node">
<title>Node5</title>
<g id="a_Node000005"><a xlink:href="hex2b64_8c.html#a654a4e02736435bcd6bc7b0e88add05a" target="_top" xlink:title="Convert a single hexadecimal character into its integer value.">
<polygon fill="white" stroke="#666666" points="306.5,-19 239.5,-19 239.5,0 306.5,0 306.5,-19"/>
<text text-anchor="middle" x="273" y="-7" font-family="Helvetica,sans-Serif" font-size="10.00">hex_value</text>
</a>
</g>
</g>
<!-- Node2&#45;&gt;Node5 -->
<g id="edge4_Node000002_Node000005" class="edge">
<title>Node2&#45;&gt;Node5</title>
<g id="a_edge4_Node000002_Node000005"><a xlink:title=" ">
<path fill="none" stroke="#63b8ff" d="M175.28,-21.51C192.75,-19.34 212.33,-16.91 229.29,-14.8"/>
<polygon fill="#63b8ff" stroke="#63b8ff" points="229.97,-18.24 239.46,-13.54 229.1,-11.3 229.97,-18.24"/>
</a>
</g>
</g>
<!-- Node4 -->
<g id="Node000004" class="node">
<title>Node4</title>
<g id="a_Node000004"><a xlink:href="hex2b64_8c.html#a979ca63eef453c033c7186d4b2715e6f" target="_top" xlink:title="Produce four Base64 characters from up to three bytes.">
<polygon fill="white" stroke="#666666" points="495,-56 371,-56 371,-37 495,-37 495,-56"/>
<text text-anchor="middle" x="433" y="-44" font-family="Helvetica,sans-Serif" font-size="10.00">encode_base64_chars</text>
</a>
</g>
</g>
<!-- Node3&#45;&gt;Node4 -->
<g id="edge3_Node000003_Node000004" class="edge">
<title>Node3&#45;&gt;Node4</title>
<g id="a_edge3_Node000003_Node000004"><a xlink:title=" ">
<path fill="none" stroke="#63b8ff" d="M335.09,-46.5C343.51,-46.5 352.23,-46.5 360.81,-46.5"/>
<polygon fill="#63b8ff" stroke="#63b8ff" points="360.82,-50 370.82,-46.5 360.82,-43 360.82,-50"/>
</a>
</g>
</g>
</g>
</svg>
