<?xml version="1.0" encoding="UTF-8" standalone="no"?>
<!DOCTYPE svg PUBLIC "-//W3C//DTD SVG 1.1//EN"
 "http://www.w3.org/Graphics/SVG/1.1/DTD/svg11.dtd">
<!-- Generated by graphviz version 2.43.0 (0)
 -->
<!-- Title: encode_base64_chars Pages: 1 -->
<svg width="503pt" height="64pt"
 viewBox="0.00 0.00 503.00 64.00" xmlns="http://www.w3.org/2000/svg" xmlns:xlink="http://www.w3.org/1999/xlink">
<g id="graph0" class="graph" transform="scale(1 1) rotate(0) translate(4 60)">
<title>encode_base64_chars</title>
<!-- Node1 -->
<g id="Node000001" class="node">
<title>Node1</title>
<g id="a_Node000001"><a xlink:title="Produce four Base64 characters from up to three bytes.">
<polygon fill="#999999" stroke="#666666" points="495,-37 371,-37 371,-18 495,-18 495,-37"/>
<text text-anchor="middle" x="433" y="-25" font-family="Helvetica,sans-Serif" font-size="10.00">encode_base64_chars</text>
</a>
</g>
</g>
<!-- Node2 -->
<g id="Node000002" class="node">
<title>Node2</title>
<g id="a_Node000002"><a xlink:href="hex2b64_8c.html#a9538b35625a219c2ae5d78b640ba7da4" target="_top" xlink:title="Write a Base64 block derived from up to three input bytes.">
<polygon fill="white" stroke="#666666" points="335,-56 211,-56 211,-37 335,-37 335,-56"/>
<text text-anchor="middle" x="273" y="-44" font-family="Helvetica,sans-Serif" font-size="10.00">encode_base64_block</text>
</a>
</g>
</g>
<!-- Node1&#45;&gt;Node2 -->
<g id="edge1_Node000001_Node000002" class="edge">
<title>Node1&#45;&gt;Node2</title>
<g id="a_edge1_Node000001_Node000002"><a xlink:title=" ">
<path fill="none" stroke="#63b8ff" d="M360.91,-36.05C352.33,-37.08 343.61,-38.13 335.18,-39.14"/>
<polygon fill="#63b8ff" stroke="#63b8ff" points="361.4,-39.51 370.91,-34.85 360.57,-32.56 361.4,-39.51"/>
</a>
</g>
</g>
<!-- Node5 -->
<g id="Node000005" class="node">
<title>Node5</title>
<g id="a_Node000005"><a xlink:href="hex2b64_8c.html#a05acf5abc39b18e4f74da2c2a2a7415d" target="_top" xlink:title="Convert a memory buffer of hexadecimal characters into Base64.">
<polygon fill="white" stroke="#666666" points="319,-19 227,-19 227,0 319,0 319,-19"/>
<text text-anchor="middle" x="273" y="-7" font-family="Helvetica,sans-Serif" font-size="10.00">hex2b64_buffer</text>
</a>
</g>
</g>
<!-- Node1&#45;&gt;Node5 -->
<g id="edge4_Node000001_Node000005" class="edge">
<title>Node1&#45;&gt;Node5</title>
<g id="a_edge4_Node000001_Node000005"><a xlink:title=" ">
<path fill="none" stroke="#63b8ff" d="M360.73,-19.38C346.62,-17.77 332.19,-16.13 319.24,-14.65"/>
<polygon fill="#63b8ff" stroke="#63b8ff" points="360.58,-22.89 370.91,-20.54 361.37,-15.93 360.58,-22.89"/>
</a>
</g>
</g>
<!-- Node3 -->
<g id="Node000003" class="node">
<title>Node3</title>
<g id="a_Node000003"><a xlink:href="hex2b64_8c.html#ac4d5fb00f18155944f6038d75dc86884" target="_top" xlink:title="Convert hexadecimal text read from a stream into Base64.">
<polygon fill="white" stroke="#666666" points="175,-56 77,-56 77,-37 175,-37 175,-56"/>
<text text-anchor="middle" x="126" y="-44" font-family="Helvetica,sans-Serif" font-size="10.00">hex2b64_stream</text>
</a>
</g>
</g>
<!-- Node2&#45;&gt;Node3 -->
<g id="edge2_Node000002_Node000003" class="edge">
<title>Node2&#45;&gt;Node3</title>
<g id="a_edge2_Node000002_Node000003"><a xlink:title=" ">
<path fill="none" stroke="#63b8ff" d="M200.8,-46.5C192.14,-46.5 183.45,-46.5 175.23,-46.5"/>
<polygon fill="#63b8ff" stroke="#63b8ff" points="200.93,-50 210.93,-46.5 200.93,-43 200.93,-50"/>
</a>
</g>
</g>
<!-- Node4 -->
<g id="Node000004" class="node">
<title>Node4</title>
<g id="a_Node000004"><a xlink:href="hex2b64__main_8c.html#a840291bc02cba5474a4cb46a9b9566fe" target="_top" xlink:title="Entry point that wires stdin/stdout through hex2b64_stream().">
<polygon fill="white" stroke="#666666" points="41,-56 0,-56 0,-37 41,-37 41,-56"/>
<text text-anchor="middle" x="20.5" y="-44" font-family="Helvetica,sans-Serif" font-size="10.00">main</text>
</a>
</g>
</g>
<!-- Node3&#45;&gt;Node4 -->
<g id="edge3_Node000003_Node000004" class="edge">
<title>Node3&#45;&gt;Node4</title>
<g id="a_edge3_Node000003_Node000004"><a xlink:title=" ">
<path fill="none" stroke="#63b8ff" d="M66.79,-46.5C57.53,-46.5 48.55,-46.5 41.06,-46.5"/>
<polygon fill="#63b8ff" stroke="#63b8ff" points="66.89,-50 76.89,-46.5 66.89,-43 66.89,-50"/>
</a>
</g>
</g>
<!-- Node6 -->
<g id="Node000006" class="node">
<title>Node6</title>
<g id="a_Node000006"><a xlink:href="set__1__challenge__1_8c.html#a840291bc02cba5474a4cb46a9b9566fe" target="_top" xlink:title="Convert the fixed challenge hex string and compare to expected Base64.">
<polygon fill="white" stroke="#666666" points="146.5,-19 105.5,-19 105.5,0 146.5,0 146.5,-19"/>
<text text-anchor="middle" x="126" y="-7" font-family="Helvetica,sans-Serif" font-size="10.00">main</text>
</a>
</g>
</g>
<!-- Node5&#45;&gt;Node6 -->
<g id="edge5_Node000005_Node000006" class="edge">
<title>Node5&#45;&gt;Node6</title>
<g id="a_edge5_Node000005_Node000006"><a xlink:title=" ">
<path fill="none" stroke="#63b8ff" d="M216.9,-9.5C192.2,-9.5 164.64,-9.5 146.63,-9.5"/>
<polygon fill="#63b8ff" stroke="#63b8ff" points="216.92,-13 226.92,-9.5 216.92,-6 216.92,-13"/>
</a>
</g>
</g>
</g>
</svg>
