<?xml version="1.0" encoding="UTF-8" standalone="no"?>
<!DOCTYPE svg PUBLIC "-//W3C//DTD SVG 1.1//EN"
 "http://www.w3.org/Graphics/SVG/1.1/DTD/svg11.dtd">
<!-- Generated by graphviz version 2.43.0 (0)
 -->
<!-- Title: hex_value Pages: 1 -->
<svg width="286pt" height="64pt"
 viewBox="0.00 0.00 286.00 64.00" xmlns="http://www.w3.org/2000/svg" xmlns:xlink="http://www.w3.org/1999/xlink">
<g id="graph0" class="graph" transform="scale(1 1) rotate(0) translate(4 60)">
<title>hex_value</title>
<!-- Node1 -->
<g id="Node000001" class="node">
<title>Node1</title>
<g id="a_Node000001"><a xlink:title="Convert a single hexadecimal character into its integer value.">
<polygon fill="#999999" stroke="#666666" points="278,-37 211,-37 211,-18 278,-18 278,-37"/>
<text text-anchor="middle" x="244.5" y="-25" font-family="Helvetica,sans-Serif" font-size="10.00">hex_value</text>
</a>
</g>
</g>
<!-- Node2 -->
<g id="Node000002" class="node">
<title>Node2</title>
<g id="a_Node000002"><a xlink:href="hex2b64_8c.html#a05acf5abc39b18e4f74da2c2a2a7415d" target="_top" xlink:title="Convert a memory buffer of hexadecimal characters into Base64.">
<polygon fill="white" stroke="#666666" points="172,-56 80,-56 80,-37 172,-37 172,-56"/>
<text text-anchor="middle" x="126" y="-44" font-family="Helvetica,sans-Serif" font-size="10.00">hex2b64_buffer</text>
</a>
</g>
</g>
<!-- Node1&#45;&gt;Node2 -->
<g id="edge1_Node000001_Node000002" class="edge">
<title>Node1&#45;&gt;Node2</title>
<g id="a_edge1_Node000001_Node000002"><a xlink:title=" ">
<path fill="none" stroke="#63b8ff" d="M200.86,-34.45C191.51,-35.98 181.57,-37.6 172.12,-39.14"/>
<polygon fill="#63b8ff" stroke="#63b8ff" points="201.43,-37.91 210.74,-32.84 200.31,-31 201.43,-37.91"/>
</a>
</g>
</g>
<!-- Node4 -->
<g id="Node000004" class="node">
<title>Node4</title>
<g id="a_Node000004"><a xlink:href="hex2b64_8c.html#ac4d5fb00f18155944f6038d75dc86884" target="_top" xlink:title="Convert hexadecimal text read from a stream into Base64.">
<polygon fill="white" stroke="#666666" points="175,-19 77,-19 77,0 175,0 175,-19"/>
<text text-anchor="middle" x="126" y="-7" font-family="Helvetica,sans-Serif" font-size="10.00">hex2b64_stream</text>
</a>
</g>
</g>
<!-- Node1&#45;&gt;Node4 -->
<g id="edge3_Node000001_Node000004" class="edge">
<title>Node1&#45;&gt;Node4</title>
<g id="a_edge3_Node000001_Node000004"><a xlink:title=" ">
<path fill="none" stroke="#63b8ff" d="M200.84,-20.91C192.49,-19.62 183.68,-18.26 175.17,-16.94"/>
<polygon fill="#63b8ff" stroke="#63b8ff" points="200.32,-24.37 210.74,-22.44 201.39,-17.45 200.32,-24.37"/>
</a>
</g>
</g>
<!-- Node3 -->
<g id="Node000003" class="node">
<title>Node3</title>
<g id="a_Node000003"><a xlink:href="set__1__challenge__1_8c.html#a840291bc02cba5474a4cb46a9b9566fe" target="_top" xlink:title="Convert the fixed challenge hex string and compare to expected Base64.">
<polygon fill="white" stroke="#666666" points="41,-56 0,-56 0,-37 41,-37 41,-56"/>
<text text-anchor="middle" x="20.5" y="-44" font-family="Helvetica,sans-Serif" font-size="10.00">main</text>
</a>
</g>
</g>
<!-- Node2&#45;&gt;Node3 -->
<g id="edge2_Node000002_Node000003" class="edge">
<title>Node2&#45;&gt;Node3</title>
<g id="a_edge2_Node000002_Node000003"><a xlink:title=" ">
<path fill="none" stroke="#63b8ff" d="M69.63,-46.5C59.37,-46.5 49.29,-46.5 41.03,-46.5"/>
<polygon fill="#63b8ff" stroke="#63b8ff" points="69.9,-50 79.9,-46.5 69.9,-43 69.9,-50"/>
</a>
</g>
</g>
<!-- Node5 -->
<g id="Node000005" class="node">
<title>Node5</title>
<g id="a_Node000005"><a xlink:href="hex2b64__main_8c.html#a840291bc02cba5474a4cb46a9b9566fe" target="_top" xlink:title="Entry point that wires stdin/stdout through hex2b64_stream().">
<polygon fill="white" stroke="#666666" points="41,-19 0,-19 0,0 41,0 41,-19"/>
<text text-anchor="middle" x="20.5" y="-7" font-family="Helvetica,sans-Serif" font-size="10.00">main</text>
</a>
</g>
</g>
<!-- Node4&#45;&gt;Node5 -->
<g id="edge4_Node000004_Node000005" class="edge">
<title>Node4&#45;&gt;Node5</title>
<g id="a_edge4_Node000004_Node000005"><a xlink:title=" ">
<path fill="none" stroke="#63b8ff" d="M66.79,-9.5C57.53,-9.5 48.55,-9.5 41.06,-9.5"/>
<polygon fill="#63b8ff" stroke="#63b8ff" points="66.89,-13 76.89,-9.5 66.89,-6 66.89,-13"/>
</a>
</g>
</g>
</g>
</svg>
