<?xml version="1.0" encoding="UTF-8" standalone="no"?>
<!DOCTYPE svg PUBLIC "-//W3C//DTD SVG 1.1//EN"
 "http://www.w3.org/Graphics/SVG/1.1/DTD/svg11.dtd">
<!-- Generated by graphviz version 2.43.0 (0)
 -->
<!-- Title: hex2b64_stream Pages: 1 -->
<svg width="426pt" height="64pt"
 viewBox="0.00 0.00 426.00 64.00" xmlns="http://www.w3.org/2000/svg" xmlns:xlink="http://www.w3.org/1999/xlink">
<g id="graph0" class="graph" transform="scale(1 1) rotate(0) translate(4 60)">
<title>hex2b64_stream</title>
<!-- Node1 -->
<g id="Node000001" class="node">
<title>Node1</title>
<g id="a_Node000001"><a xlink:title="Convert hexadecimal text read from a stream into Base64.">
<polygon fill="#999999" stroke="#666666" points="98,-37 0,-37 0,-18 98,-18 98,-37"/>
<text text-anchor="middle" x="49" y="-25" font-family="Helvetica,sans-Serif" font-size="10.00">hex2b64_stream</text>
</a>
</g>
</g>
<!-- Node2 -->
<g id="Node000002" class="node">
<title>Node2</title>
<g id="a_Node000002"><a xlink:href="hex2b64_8c.html#a9538b35625a219c2ae5d78b640ba7da4" target="_top" xlink:title="Write a Base64 block derived from up to three input bytes.">
<polygon fill="white" stroke="#666666" points="258,-56 134,-56 134,-37 258,-37 258,-56"/>
<text text-anchor="middle" x="196" y="-44" font-family="Helvetica,sans-Serif" font-size="10.00">encode_base64_block</text>
</a>
</g>
</g>
<!-- Node1&#45;&gt;Node2 -->
<g id="edge1_Node000001_Node000002" class="edge">
<title>Node1&#45;&gt;Node2</title>
<g id="a_edge1_Node000001_Node000002"><a xlink:title=" ">
<path fill="none" stroke="#63b8ff" d="M98.28,-33.83C106.45,-34.9 115.09,-36.03 123.7,-37.16"/>
<polygon fill="#63b8ff" stroke="#63b8ff" points="123.4,-40.65 133.77,-38.48 124.31,-33.71 123.4,-40.65"/>
</a>
</g>
</g>
<!-- Node4 -->
<g id="Node000004" class="node">
<title>Node4</title>
<g id="a_Node000004"><a xlink:href="hex2b64_8c.html#a654a4e02736435bcd6bc7b0e88add05a" target="_top" xlink:title="Convert a single hexadecimal character into its integer value.">
<polygon fill="white" stroke="#666666" points="229.5,-19 162.5,-19 162.5,0 229.5,0 229.5,-19"/>
<text text-anchor="middle" x="196" y="-7" font-family="Helvetica,sans-Serif" font-size="10.00">hex_value</text>
</a>
</g>
</g>
<!-- Node1&#45;&gt;Node4 -->
<g id="edge3_Node000001_Node000004" class="edge">
<title>Node1&#45;&gt;Node4</title>
<g id="a_edge3_Node000001_Node000004"><a xlink:title=" ">
<path fill="none" stroke="#63b8ff" d="M98.28,-21.51C115.75,-19.34 135.33,-16.91 152.29,-14.8"/>
<polygon fill="#63b8ff" stroke="#63b8ff" points="152.97,-18.24 162.46,-13.54 152.1,-11.3 152.97,-18.24"/>
</a>
</g>
</g>
<!-- Node3 -->
<g id="Node000003" class="node">
<title>Node3</title>
<g id="a_Node000003"><a xlink:href="hex2b64_8c.html#a979ca63eef453c033c7186d4b2715e6f" target="_top" xlink:title="Produce four Base64 characters from up to three bytes.">
<polygon fill="white" stroke="#666666" points="418,-56 294,-56 294,-37 418,-37 418,-56"/>
<text text-anchor="middle" x="356" y="-44" font-family="Helvetica,sans-Serif" font-size="10.00">encode_base64_chars</text>
</a>
</g>
</g>
<!-- Node2&#45;&gt;Node3 -->
<g id="edge2_Node000002_Node000003" class="edge">
<title>Node2&#45;&gt;Node3</title>
<g id="a_edge2_Node000002_Node000003"><a xlink:title=" ">
<path fill="none" stroke="#63b8ff" d="M258.09,-46.5C266.51,-46.5 275.23,-46.5 283.81,-46.5"/>
<polygon fill="#63b8ff" stroke="#63b8ff" points="283.82,-50 293.82,-46.5 283.82,-43 283.82,-50"/>
</a>
</g>
</g>
</g>
</svg>
