<?xml version="1.0" encoding="UTF-8" standalone="no"?>
<!DOCTYPE svg PUBLIC "-//W3C//DTD SVG 1.1//EN"
 "http://www.w3.org/Graphics/SVG/1.1/DTD/svg11.dtd">
<!-- Generated by graphviz version 2.43.0 (0)
 -->
<!-- Title: main Pages: 1 -->
<svg width="343pt" height="101pt"
 viewBox="0.00 0.00 343.00 101.00" xmlns="http://www.w3.org/2000/svg" xmlns:xlink="http://www.w3.org/1999/xlink">

<svg id="main" version="1.1" xmlns="http://www.w3.org/2000/svg" xmlns:xlink="http://www.w3.org/1999/xlink" xml:space="preserve" onload="init(evt)">
<style type="text/css"><![CDATA[
.node, .edge {opacity: 0.7;}
.node.selected, .edge.selected {opacity: 1;}
.edge:hover path { stroke: red; }
.edge:hover polygon { stroke: red; fill: red; }
]]></style>
<script type="application/ecmascript" xlink:href="svg.min.js"/>
<svg id="graph" class="graph">
<g id="graph0" class="graph" transform="scale(1 1) rotate(0) translate(4 97)">
<title>main</title>
<!-- Node1 -->
<g id="Node000001" class="node">
<title>Node1</title>
<g id="a_Node000001"><a xlink:title=" ">
<polygon fill="#999999" stroke="#666666" points="41,-56 0,-56 0,-37 41,-37 41,-56"/>
<text text-anchor="middle" x="20.5" y="-44" font-family="Helvetica,sans-Serif" font-size="10.00">main</text>
</a>
</g>
</g>
<!-- Node2 -->
<g id="Node000002" class="node">
<title>Node2</title>
<g id="a_Node000002"><a xlink:href="fixed__xor_8c.html#ab23437e524ba132f67eaab28f6f87175" target="_top" xlink:title="XOR two buffers of equal length into an output buffer.">
<polygon fill="white" stroke="#666666" points="190.5,-93 91.5,-93 91.5,-74 190.5,-74 190.5,-93"/>
<text text-anchor="middle" x="141" y="-81" font-family="Helvetica,sans-Serif" font-size="10.00">fixed_xor_buffers</text>
</a>
</g>
</g>
<!-- Node1&#45;&gt;Node2 -->
<g id="edge1_Node000001_Node000002" class="edge">
<title>Node1&#45;&gt;Node2</title>
<g id="a_edge1_Node000001_Node000002"><a xlink:title=" ">
<path fill="none" stroke="#63b8ff" d="M41.2,-53.52C51.77,-57.22 65.05,-61.75 77,-65.5 82.98,-67.38 89.31,-69.28 95.56,-71.11"/>
<polygon fill="#63b8ff" stroke="#63b8ff" points="94.67,-74.5 105.24,-73.92 96.61,-67.77 94.67,-74.5"/>
</a>
</g>
</g>
<!-- Node3 -->
<g id="Node000003" class="node">
<title>Node3</title>
<g id="a_Node000003"><a xlink:href="fixed__xor_8c.html#afd02583938bcd7d4f11baa18e23279d4" target="_top" xlink:title="Convert a fixed_xor_status value into a human&#45;readable string.">
<polygon fill="white" stroke="#666666" points="205,-56 77,-56 77,-37 205,-37 205,-56"/>
<text text-anchor="middle" x="141" y="-44" font-family="Helvetica,sans-Serif" font-size="10.00">fixed_xor_status_string</text>
</a>
</g>
</g>
<!-- Node1&#45;&gt;Node3 -->
<g id="edge2_Node000001_Node000003" class="edge">
<title>Node1&#45;&gt;Node3</title>
<g id="a_edge2_Node000001_Node000003"><a xlink:title=" ">
<path fill="none" stroke="#63b8ff" d="M41.07,-46.5C48.41,-46.5 57.25,-46.5 66.59,-46.5"/>
<polygon fill="#63b8ff" stroke="#63b8ff" points="66.87,-50 76.87,-46.5 66.87,-43 66.87,-50"/>
</a>
</g>
</g>
<!-- Node4 -->
<g id="Node000004" class="node">
<title>Node4</title>
<g id="a_Node000004"><a xlink:href="set__1__challenge__2_8c.html#ac1578fac7c37bf0a4e88f3e40e250817" target="_top" xlink:title=" ">
<polygon fill="white" stroke="#666666" points="182,-19 100,-19 100,0 182,0 182,-19"/>
<text text-anchor="middle" x="141" y="-7" font-family="Helvetica,sans-Serif" font-size="10.00">hex_to_bytes</text>
</a>
</g>
</g>
<!-- Node1&#45;&gt;Node4 -->
<g id="edge3_Node000001_Node000004" class="edge">
<title>Node1&#45;&gt;Node4</title>
<g id="a_edge3_Node000001_Node000004"><a xlink:title=" ">
<path fill="none" stroke="#63b8ff" d="M41.25,-39.99C51.83,-36.52 65.11,-32.22 77,-28.5 83.74,-26.39 90.9,-24.19 97.88,-22.07"/>
<polygon fill="#63b8ff" stroke="#63b8ff" points="99.35,-25.28 107.91,-19.04 97.33,-18.58 99.35,-25.28"/>
</a>
</g>
</g>
<!-- Node5 -->
<g id="Node000005" class="node">
<title>Node5</title>
<g id="a_Node000005"><a xlink:href="set__1__challenge__2_8c.html#ab6f0cac49897f4119a678ff615cd655b" target="_top" xlink:title=" ">
<polygon fill="white" stroke="#666666" points="335,-19 241,-19 241,0 335,0 335,-19"/>
<text text-anchor="middle" x="288" y="-7" font-family="Helvetica,sans-Serif" font-size="10.00">hex_digit_value</text>
</a>
</g>
</g>
<!-- Node4&#45;&gt;Node5 -->
<g id="edge4_Node000004_Node000005" class="edge">
<title>Node4&#45;&gt;Node5</title>
<g id="a_edge4_Node000004_Node000005"><a xlink:title=" ">
<path fill="none" stroke="#63b8ff" d="M182.01,-9.5C197,-9.5 214.32,-9.5 230.53,-9.5"/>
<polygon fill="#63b8ff" stroke="#63b8ff" points="230.98,-13 240.98,-9.5 230.98,-6 230.98,-13"/>
</a>
</g>
</g>
</g>
</svg>
</svg>

<style type='text/css'>
<![CDATA[
[data-mouse-over-selected='false'] { opacity: 0.7; }
[data-mouse-over-selected='true']  { opacity: 1.0; }
]]>
</style>
<script type="application/ecmascript"><![CDATA[
document.addEventListener('DOMContentLoaded', (event) => {
  highlightEdges();
  highlightAdjacentNodes();
});
]]></script>
</svg>
