<?xml version="1.0" encoding="UTF-8" standalone="no"?>
<!DOCTYPE svg PUBLIC "-//W3C//DTD SVG 1.1//EN"
 "http://www.w3.org/Graphics/SVG/1.1/DTD/svg11.dtd">
<!-- Generated by graphviz version 2.43.0 (0)
 -->
<!-- Title: main Pages: 1 -->
<svg width="337pt" height="64pt"
 viewBox="0.00 0.00 337.00 64.00" xmlns="http://www.w3.org/2000/svg" xmlns:xlink="http://www.w3.org/1999/xlink">
<g id="graph0" class="graph" transform="scale(1 1) rotate(0) translate(4 60)">
<title>main</title>
<!-- Node1 -->
<g id="Node000001" class="node">
<title>Node1</title>
<g id="a_Node000001"><a xlink:title="Convert the fixed challenge hex string and compare to expected Base64.">
<polygon fill="#999999" stroke="#666666" points="41,-37 0,-37 0,-18 41,-18 41,-37"/>
<text text-anchor="middle" x="20.5" y="-25" font-family="Helvetica,sans-Serif" font-size="10.00">main</text>
</a>
</g>
</g>
<!-- Node2 -->
<g id="Node000002" class="node">
<title>Node2</title>
<g id="a_Node000002"><a xlink:href="hex2b64_8c.html#a05acf5abc39b18e4f74da2c2a2a7415d" target="_top" xlink:title="Convert a memory buffer of hexadecimal characters into Base64.">
<polygon fill="white" stroke="#666666" points="169,-37 77,-37 77,-18 169,-18 169,-37"/>
<text text-anchor="middle" x="123" y="-25" font-family="Helvetica,sans-Serif" font-size="10.00">hex2b64_buffer</text>
</a>
</g>
</g>
<!-- Node1&#45;&gt;Node2 -->
<g id="edge1_Node000001_Node000002" class="edge">
<title>Node1&#45;&gt;Node2</title>
<g id="a_edge1_Node000001_Node000002"><a xlink:title=" ">
<path fill="none" stroke="#63b8ff" d="M41.36,-27.5C48.75,-27.5 57.56,-27.5 66.59,-27.5"/>
<polygon fill="#63b8ff" stroke="#63b8ff" points="66.82,-31 76.82,-27.5 66.82,-24 66.82,-31"/>
</a>
</g>
</g>
<!-- Node3 -->
<g id="Node000003" class="node">
<title>Node3</title>
<g id="a_Node000003"><a xlink:href="hex2b64_8c.html#a979ca63eef453c033c7186d4b2715e6f" target="_top" xlink:title="Produce four Base64 characters from up to three bytes.">
<polygon fill="white" stroke="#666666" points="329,-56 205,-56 205,-37 329,-37 329,-56"/>
<text text-anchor="middle" x="267" y="-44" font-family="Helvetica,sans-Serif" font-size="10.00">encode_base64_chars</text>
</a>
</g>
</g>
<!-- Node2&#45;&gt;Node3 -->
<g id="edge2_Node000002_Node000003" class="edge">
<title>Node2&#45;&gt;Node3</title>
<g id="a_edge2_Node000002_Node000003"><a xlink:title=" ">
<path fill="none" stroke="#63b8ff" d="M169.32,-33.56C177.43,-34.65 186.05,-35.8 194.69,-36.96"/>
<polygon fill="#63b8ff" stroke="#63b8ff" points="194.42,-40.45 204.79,-38.31 195.34,-33.51 194.42,-40.45"/>
</a>
</g>
</g>
<!-- Node4 -->
<g id="Node000004" class="node">
<title>Node4</title>
<g id="a_Node000004"><a xlink:href="hex2b64_8c.html#a654a4e02736435bcd6bc7b0e88add05a" target="_top" xlink:title="Convert a single hexadecimal character into its integer value.">
<polygon fill="white" stroke="#666666" points="300.5,-19 233.5,-19 233.5,0 300.5,0 300.5,-19"/>
<text text-anchor="middle" x="267" y="-7" font-family="Helvetica,sans-Serif" font-size="10.00">hex_value</text>
</a>
</g>
</g>
<!-- Node2&#45;&gt;Node4 -->
<g id="edge3_Node000002_Node000004" class="edge">
<title>Node2&#45;&gt;Node4</title>
<g id="a_edge3_Node000002_Node000004"><a xlink:title=" ">
<path fill="none" stroke="#63b8ff" d="M169.32,-21.76C186.53,-19.57 206.06,-17.1 223.04,-14.95"/>
<polygon fill="#63b8ff" stroke="#63b8ff" points="223.76,-18.38 233.24,-13.65 222.88,-11.44 223.76,-18.38"/>
</a>
</g>
</g>
</g>
</svg>
