<?xml version="1.0" encoding="UTF-8" standalone="no"?>
<!DOCTYPE svg PUBLIC "-//W3C//DTD SVG 1.1//EN"
 "http://www.w3.org/Graphics/SVG/1.1/DTD/svg11.dtd">
<!-- Generated by graphviz version 2.43.0 (0)
 -->
<!-- Title: set_1_challenge_2.c Pages: 1 -->
<svg width="231pt" height="137pt"
 viewBox="0.00 0.00 231.24 137.00" xmlns="http://www.w3.org/2000/svg" xmlns:xlink="http://www.w3.org/1999/xlink">
<g id="graph0" class="graph" transform="scale(1 1) rotate(0) translate(4 133)">
<title>set_1_challenge_2.c</title>
<!-- Node1 -->
<g id="Node000001" class="node">
<title>Node1</title>
<g id="a_Node000001"><a xlink:title="Cryptopals Set 1 Challenge 2: fixed XOR test harness.">
<polygon fill="#999999" stroke="#666666" points="131.74,-129 16.74,-129 16.74,-110 131.74,-110 131.74,-129"/>
<text text-anchor="middle" x="74.24" y="-117" font-family="Helvetica,sans-Serif" font-size="10.00">set_1_challenge_2.c</text>
</a>
</g>
</g>
<!-- Node2 -->
<g id="Node000002" class="node">
<title>Node2</title>
<g id="a_Node000002"><a xlink:title=" ">
<polygon fill="#e0e0e0" stroke="#999999" points="76.24,-19 26.24,-19 26.24,0 76.24,0 76.24,-19"/>
<text text-anchor="middle" x="51.24" y="-7" font-family="Helvetica,sans-Serif" font-size="10.00">stdio.h</text>
</a>
</g>
</g>
<!-- Node1&#45;&gt;Node2 -->
<g id="edge1_Node000001_Node000002" class="edge">
<title>Node1&#45;&gt;Node2</title>
<g id="a_edge1_Node000001_Node000002"><a xlink:title=" ">
<path fill="none" stroke="#63b8ff" d="M48.74,-109.9C32.55,-102.96 12.89,-91.44 3.24,-74 -6.73,-55.98 11.18,-37.42 27.88,-25.06"/>
<polygon fill="#63b8ff" stroke="#63b8ff" points="30.12,-27.76 36.35,-19.19 26.14,-22.01 30.12,-27.76"/>
</a>
</g>
</g>
<!-- Node3 -->
<g id="Node000003" class="node">
<title>Node3</title>
<g id="a_Node000003"><a xlink:title=" ">
<polygon fill="#e0e0e0" stroke="#999999" points="65.74,-74 12.74,-74 12.74,-55 65.74,-55 65.74,-74"/>
<text text-anchor="middle" x="39.24" y="-62" font-family="Helvetica,sans-Serif" font-size="10.00">stdlib.h</text>
</a>
</g>
</g>
<!-- Node1&#45;&gt;Node3 -->
<g id="edge2_Node000001_Node000003" class="edge">
<title>Node1&#45;&gt;Node3</title>
<g id="a_edge2_Node000001_Node000003"><a xlink:title=" ">
<path fill="none" stroke="#63b8ff" d="M68.46,-109.75C63.62,-102.42 56.57,-91.73 50.6,-82.7"/>
<polygon fill="#63b8ff" stroke="#63b8ff" points="53.35,-80.5 44.92,-74.09 47.51,-84.36 53.35,-80.5"/>
</a>
</g>
</g>
<!-- Node4 -->
<g id="Node000004" class="node">
<title>Node4</title>
<g id="a_Node000004"><a xlink:title=" ">
<polygon fill="#e0e0e0" stroke="#999999" points="136.74,-74 83.74,-74 83.74,-55 136.74,-55 136.74,-74"/>
<text text-anchor="middle" x="110.24" y="-62" font-family="Helvetica,sans-Serif" font-size="10.00">string.h</text>
</a>
</g>
</g>
<!-- Node1&#45;&gt;Node4 -->
<g id="edge3_Node000001_Node000004" class="edge">
<title>Node1&#45;&gt;Node4</title>
<g id="a_edge3_Node000001_Node000004"><a xlink:title=" ">
<path fill="none" stroke="#63b8ff" d="M80.19,-109.75C85.22,-102.34 92.58,-91.5 98.76,-82.41"/>
<polygon fill="#63b8ff" stroke="#63b8ff" points="101.69,-84.33 104.41,-74.09 95.9,-80.39 101.69,-84.33"/>
</a>
</g>
</g>
<!-- Node5 -->
<g id="Node000005" class="node">
<title>Node5</title>
<g id="a_Node000005"><a xlink:href="fixed__xor_8h.html" target="_top" xlink:title="Public interface for XORing two equally sized buffers.">
<polygon fill="white" stroke="#666666" points="223.24,-74 155.24,-74 155.24,-55 223.24,-55 223.24,-74"/>
<text text-anchor="middle" x="189.24" y="-62" font-family="Helvetica,sans-Serif" font-size="10.00">fixed_xor.h</text>
</a>
</g>
</g>
<!-- Node1&#45;&gt;Node5 -->
<g id="edge4_Node000001_Node000005" class="edge">
<title>Node1&#45;&gt;Node5</title>
<g id="a_edge4_Node000001_Node000005"><a xlink:title=" ">
<path fill="none" stroke="#63b8ff" d="M92.72,-109.98C111.22,-101.46 139.92,-88.23 161.23,-78.41"/>
<polygon fill="#63b8ff" stroke="#63b8ff" points="162.81,-81.53 170.43,-74.17 159.88,-75.18 162.81,-81.53"/>
</a>
</g>
</g>
<!-- Node5&#45;&gt;Node2 -->
<g id="edge6_Node000005_Node000002" class="edge">
<title>Node5&#45;&gt;Node2</title>
<g id="a_edge6_Node000005_Node000002"><a xlink:title=" ">
<path fill="none" stroke="#63b8ff" d="M167.07,-54.98C144.47,-46.3 109.18,-32.75 83.49,-22.88"/>
<polygon fill="#63b8ff" stroke="#63b8ff" points="84.41,-19.49 73.82,-19.17 81.9,-26.02 84.41,-19.49"/>
</a>
</g>
</g>
<!-- Node6 -->
<g id="Node000006" class="node">
<title>Node6</title>
<g id="a_Node000006"><a xlink:title=" ">
<polygon fill="#e0e0e0" stroke="#999999" points="217.24,-19 161.24,-19 161.24,0 217.24,0 217.24,-19"/>
<text text-anchor="middle" x="189.24" y="-7" font-family="Helvetica,sans-Serif" font-size="10.00">stddef.h</text>
</a>
</g>
</g>
<!-- Node5&#45;&gt;Node6 -->
<g id="edge5_Node000005_Node000006" class="edge">
<title>Node5&#45;&gt;Node6</title>
<g id="a_edge5_Node000005_Node000006"><a xlink:title=" ">
<path fill="none" stroke="#63b8ff" d="M189.24,-54.75C189.24,-47.8 189.24,-37.85 189.24,-29.13"/>
<polygon fill="#63b8ff" stroke="#63b8ff" points="192.74,-29.09 189.24,-19.09 185.74,-29.09 192.74,-29.09"/>
</a>
</g>
</g>
</g>
</svg>
