<?xml version="1.0" encoding="UTF-8" standalone="no"?>
<!DOCTYPE svg PUBLIC "-//W3C//DTD SVG 1.1//EN"
 "http://www.w3.org/Graphics/SVG/1.1/DTD/svg11.dtd">
<!-- Generated by graphviz version 2.43.0 (0)
 -->
<!-- Title: utest.h Pages: 1 -->
<svg width="335pt" height="93pt"
 viewBox="0.00 0.00 334.50 93.00" xmlns="http://www.w3.org/2000/svg" xmlns:xlink="http://www.w3.org/1999/xlink">
<g id="graph0" class="graph" transform="scale(1 1) rotate(0) translate(4 89)">
<title>utest.h</title>
<!-- Node1 -->
<g id="Node000001" class="node">
<title>Node1</title>
<g id="a_Node000001"><a xlink:title=" ">
<polygon fill="#999999" stroke="#666666" points="181,-85 131,-85 131,-66 181,-66 181,-85"/>
<text text-anchor="middle" x="156" y="-73" font-family="Helvetica,sans-Serif" font-size="10.00">utest.h</text>
</a>
</g>
</g>
<!-- Node2 -->
<g id="Node000002" class="node">
<title>Node2</title>
<g id="a_Node000002"><a xlink:href="test__fixed__xor_8c.html" target="_top" xlink:title=" ">
<polygon fill="white" stroke="#666666" points="92,-24.5 0,-24.5 0,-5.5 92,-5.5 92,-24.5"/>
<text text-anchor="middle" x="46" y="-12.5" font-family="Helvetica,sans-Serif" font-size="10.00">test_fixed_xor.c</text>
</a>
</g>
</g>
<!-- Node1&#45;&gt;Node2 -->
<g id="edge1_Node000001_Node000002" class="edge">
<title>Node1&#45;&gt;Node2</title>
<g id="a_edge1_Node000001_Node000002"><a xlink:title=" ">
<path fill="none" stroke="#63b8ff" d="M130.76,-61.08C109.72,-49.88 80.36,-34.27 62.3,-24.67"/>
<polygon fill="#63b8ff" stroke="#63b8ff" points="129.3,-64.26 139.77,-65.87 132.58,-58.08 129.3,-64.26"/>
</a>
</g>
</g>
<!-- Node3 -->
<g id="Node000003" class="node">
<title>Node3</title>
<g id="a_Node000003"><a xlink:href="test__hex2b64_8c.html" target="_top" xlink:title=" ">
<polygon fill="white" stroke="#666666" points="201.5,-24.5 110.5,-24.5 110.5,-5.5 201.5,-5.5 201.5,-24.5"/>
<text text-anchor="middle" x="156" y="-12.5" font-family="Helvetica,sans-Serif" font-size="10.00">test_hex2b64.c</text>
</a>
</g>
</g>
<!-- Node1&#45;&gt;Node3 -->
<g id="edge2_Node000001_Node000003" class="edge">
<title>Node1&#45;&gt;Node3</title>
<g id="a_edge2_Node000001_Node000003"><a xlink:title=" ">
<path fill="none" stroke="#63b8ff" d="M156,-55.66C156,-45.24 156,-32.8 156,-24.67"/>
<polygon fill="#63b8ff" stroke="#63b8ff" points="152.5,-55.87 156,-65.87 159.5,-55.87 152.5,-55.87"/>
</a>
</g>
</g>
<!-- Node4 -->
<g id="Node000004" class="node">
<title>Node4</title>
<g id="a_Node000004"><a xlink:href="test__score__english__hex_8c.html" target="_top" xlink:title=" ">
<polygon fill="white" stroke="#666666" points="326.5,-30 219.5,-30 219.5,0 326.5,0 326.5,-30"/>
<text text-anchor="start" x="227.5" y="-18" font-family="Helvetica,sans-Serif" font-size="10.00">test_score_english</text>
<text text-anchor="middle" x="273" y="-7" font-family="Helvetica,sans-Serif" font-size="10.00">_hex.c</text>
</a>
</g>
</g>
<!-- Node1&#45;&gt;Node4 -->
<g id="edge3_Node000001_Node000004" class="edge">
<title>Node1&#45;&gt;Node4</title>
<g id="a_edge3_Node000001_Node000004"><a xlink:title=" ">
<path fill="none" stroke="#63b8ff" d="M182.08,-61.46C200.65,-52.18 225.58,-39.71 244.64,-30.18"/>
<polygon fill="#63b8ff" stroke="#63b8ff" points="180.39,-58.39 173.01,-65.99 183.52,-64.65 180.39,-58.39"/>
</a>
</g>
</g>
</g>
</svg>
