<?xml version="1.0" encoding="UTF-8" standalone="no"?>
<!DOCTYPE svg PUBLIC "-//W3C//DTD SVG 1.1//EN"
 "http://www.w3.org/Graphics/SVG/1.1/DTD/svg11.dtd">
<!-- Generated by graphviz version 2.43.0 (0)
 -->
<!-- Title: utest_main Pages: 1 -->
<svg width="368pt" height="138pt"
 viewBox="0.00 0.00 368.00 138.00" xmlns="http://www.w3.org/2000/svg" xmlns:xlink="http://www.w3.org/1999/xlink">
<g id="graph0" class="graph" transform="scale(1 1) rotate(0) translate(4 134)">
<title>utest_main</title>
<!-- Node1 -->
<g id="Node000001" class="node">
<title>Node1</title>
<g id="a_Node000001"><a xlink:title=" ">
<polygon fill="#999999" stroke="#666666" points="71,-74 0,-74 0,-55 71,-55 71,-74"/>
<text text-anchor="middle" x="35.5" y="-62" font-family="Helvetica,sans-Serif" font-size="10.00">utest_main</text>
</a>
</g>
</g>
<!-- Node2 -->
<g id="Node000002" class="node">
<title>Node2</title>
<g id="a_Node000002"><a xlink:href="utest_8h.html#a76e02a874017fca6790bc4793635a9c2" target="_top" xlink:title=" ">
<polygon fill="white" stroke="#666666" points="209.5,-130 135.5,-130 135.5,-111 209.5,-111 209.5,-130"/>
<text text-anchor="middle" x="172.5" y="-118" font-family="Helvetica,sans-Serif" font-size="10.00">utest_fopen</text>
</a>
</g>
</g>
<!-- Node1&#45;&gt;Node2 -->
<g id="edge1_Node000001_Node000002" class="edge">
<title>Node1&#45;&gt;Node2</title>
<g id="a_edge1_Node000001_Node000002"><a xlink:title=" ">
<path fill="none" stroke="#63b8ff" d="M51.97,-74.14C65.94,-82.53 87.27,-94.54 107,-102.5 112.87,-104.87 119.17,-107.04 125.44,-109"/>
<polygon fill="#63b8ff" stroke="#63b8ff" points="124.62,-112.41 135.2,-111.89 126.61,-105.7 124.62,-112.41"/>
</a>
</g>
</g>
<!-- Node3 -->
<g id="Node000003" class="node">
<title>Node3</title>
<g id="a_Node000003"><a xlink:href="utest_8h.html#a2a269c82d8aa016a26bf7de7e3916ab3" target="_top" xlink:title=" ">
<polygon fill="white" stroke="#666666" points="201.5,-93 143.5,-93 143.5,-74 201.5,-74 201.5,-93"/>
<text text-anchor="middle" x="172.5" y="-81" font-family="Helvetica,sans-Serif" font-size="10.00">utest_ns</text>
</a>
</g>
</g>
<!-- Node1&#45;&gt;Node3 -->
<g id="edge2_Node000001_Node000003" class="edge">
<title>Node1&#45;&gt;Node3</title>
<g id="a_edge2_Node000001_Node000003"><a xlink:title=" ">
<path fill="none" stroke="#63b8ff" d="M71.27,-69.39C90.21,-72.06 113.68,-75.36 133.15,-78.1"/>
<polygon fill="#63b8ff" stroke="#63b8ff" points="132.82,-81.59 143.21,-79.52 133.8,-74.66 132.82,-81.59"/>
</a>
</g>
</g>
<!-- Node5 -->
<g id="Node000005" class="node">
<title>Node5</title>
<g id="a_Node000005"><a xlink:href="utest_8h.html#adb558785b4d75fc0ca48f264acf5cbda" target="_top" xlink:title=" ">
<polygon fill="white" stroke="#666666" points="212.5,-56 132.5,-56 132.5,-37 212.5,-37 212.5,-56"/>
<text text-anchor="middle" x="172.5" y="-44" font-family="Helvetica,sans-Serif" font-size="10.00">utest_realloc</text>
</a>
</g>
</g>
<!-- Node1&#45;&gt;Node5 -->
<g id="edge4_Node000001_Node000005" class="edge">
<title>Node1&#45;&gt;Node5</title>
<g id="a_edge4_Node000001_Node000005"><a xlink:title=" ">
<path fill="none" stroke="#63b8ff" d="M71.27,-59.86C86.66,-57.81 105.06,-55.36 121.86,-53.12"/>
<polygon fill="#63b8ff" stroke="#63b8ff" points="122.63,-56.55 132.08,-51.76 121.71,-49.61 122.63,-56.55"/>
</a>
</g>
</g>
<!-- Node6 -->
<g id="Node000006" class="node">
<title>Node6</title>
<g id="a_Node000006"><a xlink:href="utest_8h.html#a8da20075b131eaf0cc230b7d4ca69319" target="_top" xlink:title=" ">
<polygon fill="white" stroke="#666666" points="238,-19 107,-19 107,0 238,0 238,-19"/>
<text text-anchor="middle" x="172.5" y="-7" font-family="Helvetica,sans-Serif" font-size="10.00">utest_should_filter_test</text>
</a>
</g>
</g>
<!-- Node1&#45;&gt;Node6 -->
<g id="edge5_Node000001_Node000006" class="edge">
<title>Node1&#45;&gt;Node6</title>
<g id="a_edge5_Node000001_Node000006"><a xlink:title=" ">
<path fill="none" stroke="#63b8ff" d="M53.18,-54.86C67.22,-47.03 87.98,-36.08 107,-28.5 112.76,-26.2 118.92,-24.04 125.04,-22.06"/>
<polygon fill="#63b8ff" stroke="#63b8ff" points="126.09,-25.4 134.6,-19.09 124.01,-18.71 126.09,-25.4"/>
</a>
</g>
</g>
<!-- Node4 -->
<g id="Node000004" class="node">
<title>Node4</title>
<g id="a_Node000004"><a xlink:href="utest_8h.html#a42a367d85c5af18af7a0264c16536b09" target="_top" xlink:title=" ">
<polygon fill="white" stroke="#666666" points="360,-93 274,-93 274,-74 360,-74 360,-93"/>
<text text-anchor="middle" x="317" y="-81" font-family="Helvetica,sans-Serif" font-size="10.00">utest_mul_div</text>
</a>
</g>
</g>
<!-- Node3&#45;&gt;Node4 -->
<g id="edge3_Node000003_Node000004" class="edge">
<title>Node3&#45;&gt;Node4</title>
<g id="a_edge3_Node000003_Node000004"><a xlink:title=" ">
<path fill="none" stroke="#63b8ff" d="M201.65,-83.5C219.36,-83.5 242.75,-83.5 263.76,-83.5"/>
<polygon fill="#63b8ff" stroke="#63b8ff" points="263.85,-87 273.85,-83.5 263.85,-80 263.85,-87"/>
</a>
</g>
</g>
</g>
</svg>
